<svg width="96" height="96" viewBox="0 0 96 96" fill="none" xmlns="http://www.w3.org/2000/svg">
<g clip-path="url(#clip0_2_57)">
<path d="M72 44C72 46.68 72 49.32 72 52C76.8 52 83.04 52 88 52C88 49.32 88 46.68 88 44C83.04 44 76.8 44 72 44Z" fill="black"/>
<path d="M64 70.44C67.84 73.28 72.84 77.04 76.8 80C78.4 77.88 80 75.72 81.6 73.6C77.64 70.64 72.64 66.88 68.8 64C67.2 66.16 65.6 68.32 64 70.44Z" fill="black"/>
<path d="M81.6 22.4C80 20.28 78.4 18.12 76.8 16C72.84 18.96 67.84 22.72 64 25.6C65.6 27.72 67.2 29.88 68.8 32C72.64 29.12 77.64 25.4 81.6 22.4Z" fill="black"/>
<path d="M16 36C11.6 36 8 39.6 8 44V52C8 56.4 11.6 60 16 60H20V76H28V60H32L52 72V24L32 36H16ZM36.12 42.84L44 38.12V57.88L36.12 53.16L34.2 52H32H16V44H32H34.2L36.12 42.84Z" fill="black"/>
<path d="M62 48C62 42.68 59.68 37.88 56 34.6V61.36C59.68 58.12 62 53.32 62 48Z" fill="black"/>
</g>
<defs>
<clipPath id="clip0_2_57">
<rect width="96" height="96" fill="white"/>
</clipPath>
</defs>
</svg>
