<svg width="96" height="96" viewBox="0 0 96 96" fill="none" xmlns="http://www.w3.org/2000/svg">
<g clip-path="url(#clip0_1_12)">
<path d="M83.76 44C81.92 27.32 68.68 14.08 52 12.24V4H44V12.24C27.32 14.08 14.08 27.32 12.24 44H4V52H12.24C14.08 68.68 27.32 81.92 44 83.76V92H52V83.76C68.68 81.92 81.92 68.68 83.76 52H92V44H83.76ZM48 76C32.52 76 20 63.48 20 48C20 32.52 32.52 20 48 20C63.48 20 76 32.52 76 48C76 63.48 63.48 76 48 76Z" fill="black"/>
</g>
<defs>
<clipPath id="clip0_1_12">
<rect width="96" height="96" fill="white"/>
</clipPath>
</defs>
</svg>
