<svg width="96" height="96" viewBox="0 0 96 96" fill="none" xmlns="http://www.w3.org/2000/svg">
<g clip-path="url(#clip0_3_8)">
<path d="M48 48C54.6 48 60 42.6 60 36C60 29.4 54.6 24 48 24C41.4 24 36 29.4 36 36C36 42.6 41.4 48 48 48ZM48 32C50.2 32 52 33.8 52 36C52 38.2 50.2 40 48 40C45.8 40 44 38.2 44 36C44 33.8 45.8 32 48 32ZM72 66.32C72 56.32 56.12 52 48 52C39.88 52 24 56.32 24 66.32V72H72V66.32ZM33.92 64C36.88 61.96 42.84 60 48 60C53.16 60 59.12 61.96 62.08 64H33.92ZM76 12H20C15.56 12 12 15.6 12 20V76C12 80.4 15.56 84 20 84H76C80.4 84 84 80.4 84 76V20C84 15.6 80.4 12 76 12ZM76 76H20V20H76V76Z" fill="black"/>
</g>
<defs>
<clipPath id="clip0_3_8">
<rect width="96" height="96" fill="white"/>
</clipPath>
</defs>
</svg>
