<svg width="96" height="96" viewBox="0 0 96 96" fill="none" xmlns="http://www.w3.org/2000/svg">
<g clip-path="url(#clip0_2_46)">
<path d="M68 76.88H20V28H48V20H20C15.6 20 12 23.6 12 28V76C12 80.4 15.6 84 20 84H68C72.4 84 76 80.4 76 76V48H68V76.88Z" fill="black"/>
<path d="M76 8H68V20H56C56.04 20.04 56 28 56 28H68V39.96C68.04 40 76 39.96 76 39.96V28H88V20H76V8Z" fill="black"/>
<path d="M60 36H28V44H60V36Z" fill="black"/>
<path d="M28 48V56H60V48H48H28Z" fill="black"/>
<path d="M60 60H28V68H60V60Z" fill="black"/>
</g>
<defs>
<clipPath id="clip0_2_46">
<rect width="96" height="96" fill="white"/>
</clipPath>
</defs>
</svg>
