<svg width="96" height="96" viewBox="0 0 96 96" fill="none" xmlns="http://www.w3.org/2000/svg">
<g clip-path="url(#clip0_3_5)">
<path d="M77.72 51.92C77.88 50.64 78 49.36 78 48C78 46.64 77.88 45.36 77.72 44.08L86.16 37.48C86.92 36.88 87.12 35.8 86.64 34.92L78.64 21.08C78.28 20.44 77.6 20.08 76.88 20.08C76.64 20.08 76.4 20.12 76.2 20.2L66.24 24.2C64.16 22.6 61.92 21.28 59.48 20.28L57.96 9.68C57.84 8.72 57 8 56 8H40C39 8 38.16 8.72 38.04 9.68L36.52 20.28C34.08 21.28 31.84 22.64 29.76 24.2L19.8 20.2C19.56 20.12 19.32 20.08 19.08 20.08C18.4 20.08 17.72 20.44 17.36 21.08L9.36 34.92C8.84 35.8 9.08 36.88 9.84 37.48L18.28 44.08C18.12 45.36 18 46.68 18 48C18 49.32 18.12 50.64 18.28 51.92L9.84 58.52C9.08 59.12 8.88 60.2 9.36 61.08L17.36 74.92C17.72 75.56 18.4 75.92 19.12 75.92C19.36 75.92 19.6 75.88 19.8 75.8L29.76 71.8C31.84 73.4 34.08 74.72 36.52 75.72L38.04 86.32C38.16 87.28 39 88 40 88H56C57 88 57.84 87.28 57.96 86.32L59.48 75.72C61.92 74.72 64.16 73.36 66.24 71.8L76.2 75.8C76.44 75.88 76.68 75.92 76.92 75.92C77.6 75.92 78.28 75.56 78.64 74.92L86.64 61.08C87.12 60.2 86.92 59.12 86.16 58.52L77.72 51.92V51.92ZM69.8 45.08C69.96 46.32 70 47.16 70 48C70 48.84 69.92 49.72 69.8 50.92L69.24 55.44L72.8 58.24L77.12 61.6L74.32 66.44L69.24 64.4L65.08 62.72L61.48 65.44C59.76 66.72 58.12 67.68 56.48 68.36L52.24 70.08L51.6 74.6L50.8 80H45.2L44.44 74.6L43.8 70.08L39.56 68.36C37.84 67.64 36.24 66.72 34.64 65.52L31 62.72L26.76 64.44L21.68 66.48L18.88 61.64L23.2 58.28L26.76 55.48L26.2 50.96C26.08 49.72 26 48.8 26 48C26 47.2 26.08 46.28 26.2 45.08L26.76 40.56L23.2 37.76L18.88 34.4L21.68 29.56L26.76 31.6L30.92 33.28L34.52 30.56C36.24 29.28 37.88 28.32 39.52 27.64L43.76 25.92L44.4 21.4L45.2 16H50.76L51.52 21.4L52.16 25.92L56.4 27.64C58.12 28.36 59.72 29.28 61.32 30.48L64.96 33.28L69.2 31.56L74.28 29.52L77.08 34.36L72.8 37.76L69.24 40.56L69.8 45.08ZM48 32C39.16 32 32 39.16 32 48C32 56.84 39.16 64 48 64C56.84 64 64 56.84 64 48C64 39.16 56.84 32 48 32ZM48 56C43.6 56 40 52.4 40 48C40 43.6 43.6 40 48 40C52.4 40 56 43.6 56 48C56 52.4 52.4 56 48 56Z" fill="black"/>
</g>
<defs>
<clipPath id="clip0_3_5">
<rect width="96" height="96" fill="white"/>
</clipPath>
</defs>
</svg>
