<svg width="96" height="96" viewBox="0 0 96 96" fill="none" xmlns="http://www.w3.org/2000/svg">
<g clip-path="url(#clip0_4_5)">
<path d="M72 24H64C64 15.16 56.84 8 48 8C39.16 8 32 15.16 32 24H24C19.6 24 16 27.6 16 32V80C16 84.4 19.6 88 24 88H72C76.4 88 80 84.4 80 80V32C80 27.6 76.4 24 72 24ZM48 16C52.4 16 56 19.6 56 24H40C40 19.6 43.6 16 48 16ZM72 80H24V32H32V40C32 42.2 33.8 44 36 44C38.2 44 40 42.2 40 40V32H56V40C56 42.2 57.8 44 60 44C62.2 44 64 42.2 64 40V32H72V80Z" fill="black"/>
</g>
<defs>
<clipPath id="clip0_4_5">
<rect width="96" height="96" fill="white"/>
</clipPath>
</defs>
</svg>
