<svg width="96" height="96" viewBox="0 0 96 96" fill="none" xmlns="http://www.w3.org/2000/svg">
<g clip-path="url(#clip0_2_39)">
<path d="M87.6 35.56L83.4 18.08C82.52 14.48 79.4 12 75.76 12H20.2C16.6 12 13.44 14.52 12.6 18.08L8.4 35.56C7.44 39.64 8.32 43.8 10.88 47.08C11.2 47.52 11.64 47.84 12 48.24V76C12 80.4 15.6 84 20 84H76C80.4 84 84 80.4 84 76V48.24C84.36 47.88 84.8 47.52 85.12 47.12C87.68 43.84 88.6 39.64 87.6 35.56ZM75.64 19.96L79.84 37.44C80.24 39.12 79.88 40.8 78.84 42.12C78.28 42.84 77.08 44 75.08 44C72.64 44 70.52 42.04 70.24 39.44L67.92 20L75.64 19.96ZM52 20H59.84L62 38.08C62.2 39.64 61.72 41.2 60.68 42.36C59.8 43.4 58.52 44 56.88 44C54.2 44 52 41.64 52 38.76V20ZM33.96 38.08L36.16 20H44V38.76C44 41.64 41.8 44 38.84 44C37.48 44 36.24 43.4 35.28 42.36C34.28 41.2 33.8 39.64 33.96 38.08ZM16.16 37.44L20.2 20H28.08L25.76 39.44C25.44 42.04 23.36 44 20.92 44C18.96 44 17.72 42.84 17.2 42.12C16.12 40.84 15.76 39.12 16.16 37.44ZM20 76V51.88C20.32 51.92 20.6 52 20.92 52C24.4 52 27.56 50.56 29.88 48.2C32.28 50.6 35.48 52 39.12 52C42.6 52 45.72 50.56 48.04 48.28C50.4 50.56 53.6 52 57.2 52C60.56 52 63.76 50.6 66.16 48.2C68.48 50.56 71.64 52 75.12 52C75.44 52 75.72 51.92 76.04 51.88V76H20Z" fill="black"/>
</g>
<defs>
<clipPath id="clip0_2_39">
<rect width="96" height="96" fill="white"/>
</clipPath>
</defs>
</svg>
