<!DOCTYPE svg PUBLIC "-//W3C//DTD SVG 1.1//EN" "http://www.w3.org/Graphics/SVG/1.1/DTD/svg11.dtd">
<!-- Uploaded to: SVG Repo, www.svgrepo.com, Transformed by: SVG Repo Mixer Tools -->
<svg fill="#000000" height="64px" width="64px" version="1.1" id="Layer_1" xmlns="http://www.w3.org/2000/svg" xmlns:xlink="http://www.w3.org/1999/xlink" viewBox="0 0 493.456 493.456" xml:space="preserve">
<g id="SVGRepo_bgCarrier" stroke-width="0"/>
<g id="SVGRepo_tracerCarrier" stroke-linecap="round" stroke-linejoin="round"/>
<g id="SVGRepo_iconCarrier"> <g> <g> <path d="M246.73,0C110.682,0,0.002,110.684,0.002,246.744c0,136.032,110.68,246.712,246.728,246.712 s246.724-110.68,246.724-246.712C493.454,110.684,382.778,0,246.73,0z M360.258,348.776l-11.112,11.12 c-2.808,2.836-7.82,2.836-10.644,0l-88.68-88.672c-0.728-0.74-1.704-1.136-2.732-1.136c-1.028,0-2.004,0.4-2.732,1.136 L155.682,359.9c-2.82,2.836-7.828,2.836-10.648,0l-11.108-11.12c-1.412-1.404-2.196-3.304-2.196-5.3 c0-2.02,0.784-3.916,2.196-5.344l88.68-88.672c1.508-1.512,1.508-3.948,0-5.452l-88.68-88.68c-1.412-1.416-2.196-3.308-2.196-5.32 c0-2.02,0.784-3.916,2.196-5.328l11.108-11.108c2.82-2.82,7.828-2.82,10.648,0l88.68,88.672c1.444,1.444,4.016,1.444,5.46,0 l88.676-88.676c2.824-2.824,7.836-2.824,10.644,0l11.112,11.112c2.928,2.924,2.928,7.716,0,10.648l-88.692,88.676 c-1.504,1.504-1.504,3.94,0,5.452l88.696,88.672C363.186,341.072,363.186,345.844,360.258,348.776z"/> </g> </g> </g>
</svg>