<svg width="34" height="31" viewBox="0 0 34 31" fill="none" xmlns="http://www.w3.org/2000/svg">
<path d="M24.5 0C21.6 0 18.8167 1.35 17 3.48333C15.1833 1.35 12.4 0 9.50001 0C4.36668 0 0.333344 4.03333 0.333344 9.16667C0.333344 15.4667 6.00001 20.6 14.5833 28.4L17 30.5833L19.4167 28.3833C28 20.6 33.6667 15.4667 33.6667 9.16667C33.6667 4.03333 29.6333 0 24.5 0ZM17.1667 25.9167L17 26.0833L16.8333 25.9167C8.90001 18.7333 3.66668 13.9833 3.66668 9.16667C3.66668 5.83333 6.16668 3.33333 9.50001 3.33333C12.0667 3.33333 14.5667 4.98333 15.45 7.26667H18.5667C19.4333 4.98333 21.9333 3.33333 24.5 3.33333C27.8333 3.33333 30.3333 5.83333 30.3333 9.16667C30.3333 13.9833 25.1 18.7333 17.1667 25.9167Z" fill="#BDBDBD"/>
</svg>
