<svg width="40" height="40" viewBox="0 0 40 40" fill="none" xmlns="http://www.w3.org/2000/svg">
<g clip-path="url(#clip0_22_303)">
<path d="M27.5 5C24.6 5 21.8167 6.35 20 8.48333C18.1833 6.35 15.4 5 12.5 5C7.36668 5 3.33334 9.03333 3.33334 14.1667C3.33334 20.4667 9.00001 25.6 17.5833 33.4L20 35.5833L22.4167 33.3833C31 25.6 36.6667 20.4667 36.6667 14.1667C36.6667 9.03333 32.6333 5 27.5 5ZM20.1667 30.9167L20 31.0833L19.8333 30.9167C11.9 23.7333 6.66668 18.9833 6.66668 14.1667C6.66668 10.8333 9.16668 8.33333 12.5 8.33333C15.0667 8.33333 17.5667 9.98333 18.45 12.2667H21.5667C22.4333 9.98333 24.9333 8.33333 27.5 8.33333C30.8333 8.33333 33.3333 10.8333 33.3333 14.1667C33.3333 18.9833 28.1 23.7333 20.1667 30.9167Z" fill="#323232"/>
</g>
<defs>
<clipPath id="clip0_22_303">
<rect width="40" height="40" fill="white"/>
</clipPath>
</defs>
</svg>
