<svg width="96" height="96" viewBox="0 0 96 96" fill="none" xmlns="http://www.w3.org/2000/svg">
<path d="M60 56C63.5 56 63.5 55.9983 63.5 55.9966L63.5 55.9928L63.5 55.9845L63.4999 55.9643L63.4992 55.91C63.4986 55.8677 63.4974 55.8133 63.4953 55.7477C63.4911 55.6165 63.4832 55.4396 63.4684 55.2235C63.4388 54.7923 63.3812 54.1982 63.2685 53.4939C63.0459 52.1025 62.5941 50.1912 61.6553 48.2354C60.7116 46.2693 59.2343 44.1758 56.9339 42.5783C54.6044 40.9606 51.6425 40 48 40C44.3575 40 41.3956 40.9606 39.0661 42.5783C36.7657 44.1758 35.2884 46.2693 34.3447 48.2354C33.4059 50.1912 32.9541 52.1025 32.7315 53.4939C32.6188 54.1982 32.5612 54.7923 32.5316 55.2235C32.5168 55.4396 32.5089 55.6165 32.5047 55.7477C32.5026 55.8133 32.5014 55.8677 32.5008 55.91L32.5001 55.9643L32.5 55.9845L32.5 55.9928L32.5 55.9966C32.5 55.9983 32.5 56 36 56H32.5V80.5H19.5V37.75L48 16.375L76.5 37.75V80.5H63.5V56H60Z" stroke="white" stroke-width="5"/>
</svg>
