<svg width="96" height="96" viewBox="0 0 96 96" fill="none" xmlns="http://www.w3.org/2000/svg">
<g clip-path="url(#clip0_1_53)">
<path d="M48 6C32.52 6 20 18.52 20 34C20 55 45.5 86 48 86C50.5 86 76 55 76 34C76 18.52 63.48 6 48 6ZM28 34C28 22.96 36.96 14 48 14C59.04 14 68 22.96 68 34C68 45.52 50 73.52 48 73.52C46 73.52 28 45.4 28 34Z" fill="black"/>
<path d="M48 46C53.5228 46 58 41.5228 58 36C58 30.4772 53.5228 26 48 26C42.4772 26 38 30.4772 38 36C38 41.5228 42.4772 46 48 46Z" fill="black"/>
</g>
<defs>
<clipPath id="clip0_1_53">
<rect width="96" height="96" fill="white"/>
</clipPath>
</defs>
</svg>
