<svg width="96" height="96" viewBox="0 0 96 96" fill="none" xmlns="http://www.w3.org/2000/svg">
<g clip-path="url(#clip0_1_50)">
<path d="M48 8C32.52 8 20 20.52 20 36C20 52.68 37.68 75.68 44.96 84.44C46.56 86.36 49.48 86.36 51.08 84.44C58.32 75.68 76 52.68 76 36C76 20.52 63.48 8 48 8ZM48 46C42.48 46 38 41.52 38 36C38 30.48 42.48 26 48 26C53.52 26 58 30.48 58 36C58 41.52 53.52 46 48 46Z" fill="black"/>
</g>
<defs>
<clipPath id="clip0_1_50">
<rect width="96" height="96" fill="white"/>
</clipPath>
</defs>
</svg>
