<svg width="96" height="96" viewBox="0 0 96 96" fill="none" xmlns="http://www.w3.org/2000/svg">
<g clip-path="url(#clip0_1_69)">
<path d="M48 8C25.92 8 8 25.92 8 48C8 70.08 25.92 88 48 88C70.08 88 88 70.08 88 48C88 25.92 70.08 8 48 8ZM28.28 73.12C30 69.52 40.48 66 48 66C55.52 66 66.04 69.52 67.72 73.12C62.28 77.44 55.44 80 48 80C40.56 80 33.72 77.44 28.28 73.12ZM73.44 67.32C67.72 60.36 53.84 58 48 58C42.16 58 28.28 60.36 22.56 67.32C18.48 61.96 16 55.28 16 48C16 30.36 30.36 16 48 16C65.64 16 80 30.36 80 48C80 55.28 77.52 61.96 73.44 67.32V67.32ZM48 24C40.24 24 34 30.24 34 38C34 45.76 40.24 52 48 52C55.76 52 62 45.76 62 38C62 30.24 55.76 24 48 24ZM48 44C44.68 44 42 41.32 42 38C42 34.68 44.68 32 48 32C51.32 32 54 34.68 54 38C54 41.32 51.32 44 48 44Z" fill="black"/>
</g>
<defs>
<clipPath id="clip0_1_69">
<rect width="96" height="96" fill="white"/>
</clipPath>
</defs>
</svg>
