<?xml version="1.0" encoding="iso-8859-1"?>
<!-- Uploaded to: SVG Repo, www.svgrepo.com, Generator: SVG Repo Mixer Tools -->
<svg fill="#000000" height="800px" width="800px" version="1.1" id="Layer_1" xmlns="http://www.w3.org/2000/svg" xmlns:xlink="http://www.w3.org/1999/xlink" 
	 viewBox="0 0 512 512" xml:space="preserve">
<g>
	<g>
		<path d="M256,0C114.842,0,0,114.842,0,256c0,141.147,114.882,256,256,256c141.397,0,256-115.142,256-256
			C512,114.842,397.158,0,256,0z M256,478.609c-52.132,0-100.129-18.02-138.109-48.149c23.515-54.854,77.66-90.981,138.109-90.981
			c60.458,0,114.613,36.119,138.132,90.962C356.149,460.581,308.143,478.609,256,478.609z M172.522,222.609
			c0-46.03,37.448-83.478,83.478-83.478s83.478,37.448,83.478,83.478S302.03,306.087,256,306.087S172.522,268.639,172.522,222.609z
			 M419.819,406.556c-20.636-40.667-55.522-71.771-97.195-87.984c30.345-21.132,50.246-56.264,50.246-95.963
			c0-64.442-52.428-116.87-116.87-116.87s-116.87,52.428-116.87,116.87c0,39.701,19.903,74.835,50.252,95.967
			c-41.668,16.217-76.547,47.328-97.18,88.003C55.71,366.915,33.391,314.017,33.391,256c0-122.746,99.862-222.609,222.609-222.609
			S478.609,133.254,478.609,256C478.609,314.007,456.299,366.895,419.819,406.556z"/>
	</g>
</g>
</svg>