<?xml version="1.0" encoding="iso-8859-1"?>
<!-- Uploaded to: SVG Repo, www.svgrepo.com, Generator: SVG Repo Mixer Tools -->
<svg fill="#000000" height="800px" width="800px" version="1.1" id="Layer_1" xmlns="http://www.w3.org/2000/svg" xmlns:xlink="http://www.w3.org/1999/xlink" 
	 viewBox="0 0 512 512" xml:space="preserve">
<g>
	<g>
		<path d="M256,0C114.837,0,0,114.837,0,256s114.837,256,256,256s256-114.837,256-256S397.163,0,256,0z M256,478.609
			c-64.688,0-122.835-27.902-163.544-72.103c20.663-40.627,55.519-71.647,97.116-87.857c-30.438-21.118-50.442-56.267-50.442-96.04
			c0-64.445,52.424-116.87,116.87-116.87s116.87,52.424,116.87,116.87c0,39.764-19.995,74.904-50.421,96.023
			c41.624,16.195,76.505,47.183,97.189,87.771C378.923,450.664,320.737,478.609,256,478.609z"/>
	</g>
</g>
</svg>