<svg width="96" height="96" viewBox="0 0 96 96" fill="none" xmlns="http://www.w3.org/2000/svg">
<g clip-path="url(#clip0_1_42)">
<path d="M56 34H40C37.8 34 36 32.2 36 30C36 27.8 37.8 26 40 26H56C58.2 26 60 27.8 60 30C60 32.2 58.2 34 56 34Z" fill="black"/>
<path d="M56 46H40C37.8 46 36 44.2 36 42C36 39.8 37.8 38 40 38H56C58.2 38 60 39.8 60 42C60 44.2 58.2 46 56 46Z" fill="black"/>
<path d="M78 12L72 6L66 12L60 6L54 12L48 6L42 12L36 6L30 12L24 6V62H16C13.8 62 12 63.8 12 66V74C12 80.64 17.36 86 24 86H72C78.64 86 84 80.64 84 74V6L78 12ZM60 78H24C21.8 78 20 76.2 20 74V70H32H48H60V78ZM76 74C76 76.2 74.2 78 72 78C69.8 78 68 76.2 68 74V66C68 63.8 66.2 62 64 62H56H48H32V18H76V74Z" fill="black"/>
<path d="M68 34C70.2091 34 72 32.2091 72 30C72 27.7909 70.2091 26 68 26C65.7909 26 64 27.7909 64 30C64 32.2091 65.7909 34 68 34Z" fill="black"/>
<path d="M68 46C70.2091 46 72 44.2091 72 42C72 39.7909 70.2091 38 68 38C65.7909 38 64 39.7909 64 42C64 44.2091 65.7909 46 68 46Z" fill="black"/>
</g>
<defs>
<clipPath id="clip0_1_42">
<rect width="96" height="96" fill="white"/>
</clipPath>
</defs>
</svg>
