<svg width="30" height="37" viewBox="0 0 30 37" fill="none" xmlns="http://www.w3.org/2000/svg">
<path d="M15 36.5625C17.0625 36.5625 18.75 34.875 18.75 32.8125H11.25C11.25 34.875 12.9375 36.5625 15 36.5625ZM26.25 25.3125V15.9375C26.25 10.1813 23.1937 5.3625 17.8125 4.0875V2.8125C17.8125 1.25625 16.5562 0 15 0C13.4438 0 12.1875 1.25625 12.1875 2.8125V4.0875C6.825 5.3625 3.75 10.1625 3.75 15.9375V25.3125L0 29.0625V30.9375H30V29.0625L26.25 25.3125ZM22.5 27.1875H7.5V15.9375C7.5 11.2875 10.3312 7.5 15 7.5C19.6688 7.5 22.5 11.2875 22.5 15.9375V27.1875Z" fill="black"/>
</svg>
