<svg width="72" height="80" viewBox="0 0 72 80" fill="none" xmlns="http://www.w3.org/2000/svg">
<path d="M60 56.32C56.96 56.32 54.24 57.52 52.16 59.4L23.64 42.8C23.84 41.88 24 40.96 24 40C24 39.04 23.84 38.12 23.64 37.2L51.84 20.76C54 22.76 56.84 24 60 24C66.64 24 72 18.64 72 12C72 5.36 66.64 0 60 0C53.36 0 48 5.36 48 12C48 12.96 48.16 13.88 48.36 14.8L20.16 31.24C18 29.24 15.16 28 12 28C5.36 28 0 33.36 0 40C0 46.64 5.36 52 12 52C15.16 52 18 50.76 20.16 48.76L48.64 65.4C48.44 66.24 48.32 67.12 48.32 68C48.32 74.44 53.56 79.68 60 79.68C66.44 79.68 71.68 74.44 71.68 68C71.68 61.56 66.44 56.32 60 56.32ZM60 8C62.2 8 64 9.8 64 12C64 14.2 62.2 16 60 16C57.8 16 56 14.2 56 12C56 9.8 57.8 8 60 8ZM12 44C9.8 44 8 42.2 8 40C8 37.8 9.8 36 12 36C14.2 36 16 37.8 16 40C16 42.2 14.2 44 12 44ZM60 72.08C57.8 72.08 56 70.28 56 68.08C56 65.88 57.8 64.08 60 64.08C62.2 64.08 64 65.88 64 68.08C64 70.28 62.2 72.08 60 72.08Z" fill="white"/>
</svg>
