<svg width="96" height="96" viewBox="0 0 96 96" fill="none" xmlns="http://www.w3.org/2000/svg">
<g clip-path="url(#clip0_111_5)">
<path d="M36 84H72C75.32 84 78.16 82 79.36 79.12L91.44 50.92C91.8 50 92 49.04 92 48V40C92 35.6 88.4 32 84 32H58.76L62.56 13.72L62.68 12.44C62.68 10.8 62 9.28 60.92 8.2L56.68 4L30.32 30.36C28.88 31.8 28 33.8 28 36V76C28 80.4 31.6 84 36 84ZM36 36L53.36 18.64L48 40H84V48L72 76H36V36ZM4 36H20V84H4V36Z" fill="#BDBDBD"/>
</g>
<defs>
<clipPath id="clip0_111_5">
<rect width="96" height="96" fill="white"/>
</clipPath>
</defs>
</svg>
